inDegrees=no
num_controls=7
num_derivatives=13
num_iterations=61
num_multipliers=7
num_parameters=0
num_slacks=7
num_states=26
objective=0.426970
objective_accelerations=0.056663
objective_balance=0.001379
objective_effort=0.014488
objective_height=0.348503
objective_ligament=0.005937
solver_duration=827.742338
status=Solve_Succeeded
success=true
DataType=double
version=3
OpenSimVersion=4.5
endheader
time	/jointset/ground_pelvis/pelvis_tilt/value	/jointset/ground_pelvis/pelvis_tx/value	/jointset/ground_pelvis/pelvis_ty/value	/jointset/hip_l/hip_flexion_l/value	/jointset/hip_l/hip_adduction_l/value	/jointset/hip_l/hip_rotation_l/value	/jointset/back/lumbar_extension/value	/jointset/patellofemoral_l/patellar_flexion_l/value	/jointset/knee_l/knee_flexion_l/value	/jointset/knee_l/knee_adduction_l/value	/jointset/knee_l/knee_rotation_l/value	/jointset/ankle_l/ankle_angle_l/value	/jointset/subtalar_l/subtalar_angle_l/value	/jointset/ground_pelvis/pelvis_tilt/speed	/jointset/ground_pelvis/pelvis_tx/speed	/jointset/ground_pelvis/pelvis_ty/speed	/jointset/hip_l/hip_flexion_l/speed	/jointset/hip_l/hip_adduction_l/speed	/jointset/hip_l/hip_rotation_l/speed	/jointset/back/lumbar_extension/speed	/jointset/patellofemoral_l/patellar_flexion_l/speed	/jointset/knee_l/knee_flexion_l/speed	/jointset/knee_l/knee_adduction_l/speed	/jointset/knee_l/knee_rotation_l/speed	/jointset/ankle_l/ankle_angle_l/speed	/jointset/subtalar_l/subtalar_angle_l/speed	/forceset/tau_hip_flexion_l	/forceset/tau_hip_adduction_l	/forceset/tau_hip_rotation_l	/forceset/tau_knee_flexion_l	/forceset/tau_ankle_angle_l	/forceset/tau_subtalar_angle_l	/forceset/tau_lumbar_extension	lambda_cid13_p0	lambda_cid13_p1	lambda_cid13_p2	lambda_cid13_p3	lambda_cid13_p4	lambda_cid13_p5	lambda_cid14_p0	/jointset/ground_pelvis/pelvis_tilt/accel	/jointset/ground_pelvis/pelvis_tx/accel	/jointset/ground_pelvis/pelvis_ty/accel	/jointset/hip_l/hip_flexion_l/accel	/jointset/hip_l/hip_adduction_l/accel	/jointset/hip_l/hip_rotation_l/accel	/jointset/back/lumbar_extension/accel	/jointset/patellofemoral_l/patellar_flexion_l/accel	/jointset/knee_l/knee_flexion_l/accel	/jointset/knee_l/knee_adduction_l/accel	/jointset/knee_l/knee_rotation_l/accel	/jointset/ankle_l/ankle_angle_l/accel	/jointset/subtalar_l/subtalar_angle_l/accel	gamma_cid13_p0	gamma_cid13_p1	gamma_cid13_p2	gamma_cid13_p3	gamma_cid13_p4	gamma_cid13_p5	gamma_cid14_p0
1.5	-0.329959219556927	0.04616297939855164	0.7919695968512577	0.9996036576701335	-0.3575194224872305	-0.05013943983320004	-0.3292522752814935	0.8165794944040489	0.8165794944042337	-0.03532936472149369	-0.1712235050733502	0.2654096028330024	0.1519186542655499	0.4624845364516945	0.2636605987414723	0.4940241717108036	-2.281065799209973	0.006361324058734709	-0.6109503022194382	0.6234976692373217	-2.199738092806256	-2.199738092806017	-0.2788582817960927	0.04091021983117198	-0.5506633494814021	-0.2047437549121361	-0.1205551602435387	0.05314083778983891	0.0002024135612066065	-0.1515381396276917	0.001353550058537672	-0.004470606472295591	0.1193628127346291	-24.29338651225709	7.099684544975291	-2.446055457638554	-9.09107553573218	-430.1764905511448	-41.39960062620827	-10.26543575935447	0.4646077296344507	0.7011849900180994	-0.7386411757178472	-1.348200239930828	0.337886196588723	-0.4343430773344877	1.563845271139303	-1.198355106575835	-1.198355106575933	-0.1673207355755454	0.3477821138550854	-0.36975795481809	0.5029873861202567	5.761494872581816e-07	5.16330706600356e-07	-6.426301138597728e-06	-2.579951053345685e-07	1.311886354166231e-06	1.887045620244144e-06	8.23794019655657e-07
1.51	-0.3253111636785442	0.04883487090636552	0.796871965639581	0.9767262767701475	-0.3574418824282824	-0.0562664983364664	-0.3229411206120275	0.7945241546821334	0.7945241546823233	-0.03813440033481315	-0.1707981795921184	0.259885025797142	0.1498925440698251	0.4670203454608565	0.2707300768257395	0.4863394507339444	-2.294133289340647	0.009130246987453411	-0.6143743613935122	0.6386463196868649	-2.211012746707611	-2.21101274670746	-0.2821776146864579	0.04417746956449611	-0.5540886882814835	-0.2004465964731703	-0.114861429169889	0.05030727039856697	0.001083595831191712	-0.151351019721791	0.005877331409997614	-0.005312680799771626	0.1149268517845774	-22.68909053465767	7.127661384251852	-2.385597626080186	-10.3225789243249	-426.9872405155181	-41.89610837423485	-11.17182797128475	0.4321808205612054	0.7116864969317154	-0.7996420538392839	-1.244377938655	0.244600007807091	-0.2824695462888478	1.477333186512997	-1.044635484669436	-1.044635484682558	-0.4184044666229542	0.3185380680219037	-0.3043112822741991	0.3981641937263516	5.539909406632904e-07	1.707255823209784e-06	-6.056305288618135e-06	-8.382911253698653e-08	1.323141150394766e-06	2.492254762810495e-06	8.76343990787273e-07
1.52	-0.3206209270432703	0.05157782865088222	0.8016942363191016	0.9537265500610543	-0.3573370122066892	-0.06242500387323677	-0.3164810877871351	0.77236554543066	0.7723655454308345	-0.04097346225726468	-0.1703397132805398	0.2543311174853449	0.1479104222826783	0.4709206878301814	0.2778738460820334	0.4780045499502845	-2.305534961032092	0.01182735658791174	-0.6172397089213827	0.653273300322455	-2.220391998719133	-2.22039199871907	-0.2856635436110562	0.04753838589585477	-0.556529604668405	-0.1959460731965372	-0.1091676980961916	0.04747370300733338	0.001964778100967677	-0.1511638998158834	0.01040111276146515	-0.00615475512719175	0.1104908908345666	-21.0790498456692	7.153527058110487	-2.323537415363013	-11.5998641613578	-423.7010155050955	-42.49425365877389	-12.07543175961021	0.3375144016669756	0.7160432244234934	-0.8686771370780035	-1.015036552084876	0.3235235309366597	-0.3226007480937637	1.45951130834869	-0.8192747286095167	-0.8192747286095391	-0.2006399424221912	0.3665154334619891	-0.1728734721860622	0.5436603536537411	4.635854211093141e-07	2.14153895394717e-06	-5.065404340199671e-06	2.87693600807422e-08	1.175929906280589e-06	2.51639849925231e-06	7.877990096950864e-07
1.53	-0.3158948197974355	0.0543910716661628	0.8064298112175592	0.930623477482261	-0.3572038697613949	-0.06861025577920522	-0.309877046715436	0.7501229747489482	0.7501229747489589	-0.04384441121686029	-0.1698458105778683	0.248756143810528	0.1459758424511353	0.4742725274179255	0.2846402712780127	0.4690030576374041	-2.314689551469202	0.01479471281004967	-0.619571542987011	0.6673952380973843	-2.227812083998815	-2.227812083998809	-0.2886235333606145	0.05136339440050848	-0.5584998355171095	-0.1910097922454046	-0.1070698694071816	0.04799804973767047	0.00291106191005317	-0.143590788317252	0.003200894667345244	-0.007498538858607297	0.1080857675762328	-23.3441178862521	7.732121746751687	-1.957050182827127	-8.968719808500428	-420.5191179563508	-41.33849446959125	-12.97524468190341	0.329808317370828	0.6367895552430946	-0.931852813793696	-0.8071335856568245	0.2826103428994868	-0.1521672071304461	1.367583624071177	-0.6569517200637485	-0.6569517200724303	-0.3581335888550223	0.4082355736738162	-0.2142436002791583	0.4626802676206351	3.006674927863107e-07	1.771889974695521e-06	-3.414791724689915e-06	7.595234250737754e-08	8.603484943022836e-07	1.923160241686814e-06	5.49340641865111e-07
1.54	-0.3111360362397155	0.05726794841101479	0.8110721776858077	0.9074405663398729	-0.35704120001887	-0.07481156452009464	-0.3031359765435857	0.7278154879559465	0.7278154879558104	-0.04674785109346298	-0.1693101093872195	0.2431604386854102	0.1440894390894591	0.4774559502073771	0.2906005919963101	0.4593628639084719	-2.321502673751619	0.01773281603407081	-0.6204510759059633	0.6806791203525586	-2.23337522097515	-2.233375220975203	-0.2921617270154656	0.05589808349343533	-0.5606758947284725	-0.1863107792231652	-0.104972040718132	0.048522396468024	0.003857345719230872	-0.1360176768186173	-0.003999323426773478	-0.008842322590002319	0.1056806443179348	-25.6061251799643	8.308212389339785	-1.587912848228683	-6.3986096717028	-417.3299828030183	-40.23966351355714	-13.87093331514104	0.3038310420083872	0.5548223288871439	-0.9964174202883846	-0.5467429211459933	0.3176729313132925	-0.0321405187585552	1.291900204397661	-0.4478850679405017	-0.4478850679405321	-0.3162807234807536	0.5084515511166204	-0.2140391447176869	0.4962067678751106	1.032815656037487e-07	3.100704739498551e-06	-1.41060653597654e-06	3.440498072750292e-07	5.096298286146589e-07	1.853930110823431e-06	4.23490566036988e-07
